<svg width="90" height="19" viewBox="0 0 90 19" fill="none" xmlns="http://www.w3.org/2000/svg">
<path d="M8.73719 18.293C3.79187 18.293 0.686405 14.9883 0.686405 9.53906V9.52734C0.686405 4.07812 3.80359 0.796875 8.73719 0.796875C12.8387 0.796875 15.7802 3.38672 16.1083 6.97266L16.12 7.07812H12.6747L12.6278 6.87891C12.2294 5.01562 10.8466 3.79688 8.73719 3.79688C6.03016 3.79688 4.29578 5.97656 4.29578 9.51562V9.52734C4.29578 13.0898 6.03016 15.293 8.73719 15.293C10.7762 15.293 12.2059 14.1211 12.663 12.1172L12.6864 12H16.1317L16.12 12.1289C15.7919 15.7266 12.827 18.293 8.73719 18.293ZM17.6777 18L23.0566 9.48047V9.44531L17.7128 1.08984H21.873L25.4706 7.18359H25.5995L29.1737 1.08984H33.123L27.58 9.50391V9.55078L33.0527 18H29.0214L25.3066 12.0703H25.1894L21.498 18H17.6777ZM35.9931 18V1.08984H47.0673V4.00781H39.5322V8.54297H46.4111V11.3438H39.5322V18H35.9931ZM49.9141 18V1.08984H53.3359V18H49.9141ZM58.3858 3.82031C57.3545 3.82031 56.5577 3.01172 56.5577 2.03906C56.5577 1.06641 57.3545 0.257812 58.3858 0.257812C59.417 0.257812 60.2139 1.06641 60.2139 2.03906C60.2139 3.01172 59.417 3.82031 58.3858 3.82031ZM56.6748 18V5.4375H60.0967V18H56.6748ZM69.0958 18.2578C65.2637 18.2578 62.8966 15.7617 62.8966 11.707V11.6953C62.8966 7.67578 65.2989 5.17969 69.0606 5.17969C72.4708 5.17969 74.6387 7.27734 74.7677 9.99609V10.0781H71.5919L71.5684 9.97266C71.3575 8.77734 70.5255 7.86328 69.1075 7.86328C67.4317 7.86328 66.377 9.30469 66.377 11.707V11.7188C66.377 14.1797 67.4317 15.5742 69.1192 15.5742C70.4903 15.5742 71.3458 14.7305 71.5802 13.4648L71.5919 13.3594H74.7794V13.4297C74.6153 16.1719 72.4473 18.2578 69.0958 18.2578ZM77.5089 18V1.08984H80.9308V10.4648H81.0011L85.2433 5.4375H89.1222L84.3761 10.8398L89.3566 18H85.4073L81.8097 12.8672L80.9308 13.8398V18H77.5089Z" fill="black"/>
</svg>
