<svg width="19" height="20" viewBox="0 0 19 20" fill="none" xmlns="http://www.w3.org/2000/svg">
<path fill-rule="evenodd" clip-rule="evenodd" d="M2.08333 9.2194C2.08346 7.80815 2.4908 6.42691 3.25647 5.24142C4.02214 4.05593 5.11361 3.11655 6.39992 2.536C7.68623 1.95544 9.11274 1.75838 10.5083 1.96845C11.9038 2.17852 13.2091 2.78681 14.2675 3.72031C15.3259 4.65382 16.0924 5.87289 16.4752 7.23125C16.8579 8.58961 16.8406 10.0296 16.4252 11.3783C16.0099 12.7271 15.2142 13.9273 14.1336 14.8351C13.0531 15.7428 11.7335 16.3195 10.3333 16.4959V11.0527H12.1667C12.4098 11.0527 12.6429 10.9562 12.8148 10.7842C12.9868 10.6123 13.0833 10.3792 13.0833 10.1361C13.0833 9.89295 12.9868 9.65979 12.8148 9.48789C12.6429 9.31598 12.4098 9.2194 12.1667 9.2194H10.3333V7.38607C10.3333 7.14295 10.4299 6.9098 10.6018 6.73789C10.7737 6.56598 11.0069 6.4694 11.25 6.4694H11.7083C11.9514 6.4694 12.1846 6.37282 12.3565 6.20092C12.5284 6.02901 12.625 5.79585 12.625 5.55273C12.625 5.30962 12.5284 5.07646 12.3565 4.90455C12.1846 4.73265 11.9514 4.63607 11.7083 4.63607H11.25C10.5207 4.63607 9.82118 4.9258 9.30546 5.44152C8.78973 5.95725 8.5 6.65672 8.5 7.38607V9.2194H6.66667C6.42355 9.2194 6.19039 9.31598 6.01849 9.48789C5.84658 9.65979 5.75 9.89295 5.75 10.1361C5.75 10.3792 5.84658 10.6123 6.01849 10.7842C6.19039 10.9562 6.42355 11.0527 6.66667 11.0527H8.5V16.4959C6.72773 16.2726 5.09789 15.4101 3.91644 14.0704C2.73499 12.7306 2.08317 11.0057 2.08333 9.2194ZM9.41667 18.3861C14.4794 18.3861 18.5833 14.2822 18.5833 9.2194C18.5833 4.15665 14.4794 0.0527344 9.41667 0.0527344C4.35392 0.0527344 0.25 4.15665 0.25 9.2194C0.25 14.2822 4.35392 18.3861 9.41667 18.3861Z" fill="#000000"/>
</svg>
