<svg width="20" height="20" viewBox="0 0 20 20" fill="none" xmlns="http://www.w3.org/2000/svg">
<path d="M1.58301 10.0003C1.58301 5.89549 1.58301 3.84216 2.85809 2.56708C4.13317 1.29199 6.18559 1.29199 10.2913 1.29199C14.3962 1.29199 16.4495 1.29199 17.7246 2.56708C18.9997 3.84216 18.9997 5.89458 18.9997 10.0003C18.9997 14.1052 18.9997 16.1585 17.7246 17.4336C16.4495 18.7087 14.3971 18.7087 10.2913 18.7087C6.18651 18.7087 4.13317 18.7087 2.85809 17.4336C1.58301 16.1585 1.58301 14.1061 1.58301 10.0003Z" stroke="#000000" stroke-width="1.5" stroke-linecap="round" stroke-linejoin="round"/>
<path d="M15.34 4.95898H15.3308M14.416 10.0007C14.416 11.0947 13.9814 12.1439 13.2078 12.9175C12.4342 13.6911 11.385 14.1257 10.291 14.1257C9.197 14.1257 8.14779 13.6911 7.3742 12.9175C6.60061 12.1439 6.16602 11.0947 6.16602 10.0007C6.16602 8.90663 6.60061 7.85742 7.3742 7.08384C8.14779 6.31025 9.197 5.87565 10.291 5.87565C11.385 5.87565 12.4342 6.31025 13.2078 7.08384C13.9814 7.85742 14.416 8.90663 14.416 10.0007Z" stroke="#000000" stroke-width="1.5" stroke-linecap="round" stroke-linejoin="round"/>
</svg>
